<?xml version="1.0" encoding="UTF-8" standalone="no"?>
<svg xmlns="http://www.w3.org/2000/svg"
     xmlns:cc="http://creativecommons.org/ns#"
     xmlns:dc="http://purl.org/dc/elements/1.1/"
     xmlns:rdf="http://www.w3.org/1999/02/22-rdf-syntax-ns#"
     width="230.4505"
     height="230.4505" viewBox="0 0 60.9734 60.9734">
    <metadata>
        <rdf:RDF>
            <cc:Work>
                <dc:format>
                    image/svg+xml
                </dc:format>
                <dc:type rdf:resource="http://purl.org/dc/dcmitype/StillImage"/>
            </cc:Work>
        </rdf:RDF>
    </metadata>
    <path d="M27.7208 7.4647V12.38l-2.7616-2.7455-2.7993 2.8148 5.561 5.5273v7.5329l-6.424-3.7094-2.006-7.5773-3.836 1.0155.9968 3.7646-4.3754-2.5265-2.6464 4.5842 4.1967 2.4226-3.6091.956 1.0175 3.836 7.4678-1.9766 6.5432 3.777-6.3484 3.6654-7.5665-2.0515-1.0392 3.8318 3.7574 1.0185-4.3729 2.5244 2.6448 4.5842 4.1982-2.4236-.9777 3.6034 3.8303 1.0387 2.0226-7.4574 6.5262-3.7678v7.2999L22.16 47.469l2.7993 2.8143 2.7616-2.7466v5.0513h5.2912v-4.8462l2.6324 2.649 2.8148-2.7988-5.4472-5.4798v-7.4378l6.5427 3.777 2.0216 7.457 3.8297-1.0372-.9766-3.6055 4.0803 2.3554 2.6448-4.5821-4.2566-2.4577 3.7585-1.0186-1.0392-3.8302-7.565 2.0515-6.4228-3.7083 6.6161-3.82 7.4693 1.9788 1.0155-3.838-3.6101-.9555 4.0788-2.355-2.6443-4.582-4.2576 2.4576.9978-3.7646-3.838-1.0154-2.006 7.5783-6.439 3.7171v-7.6708l5.4473-5.4798-2.8148-2.7988-2.6324 2.6474V7.4647h-5.2912z"
          fill="currentColor"/>
</svg>
