<?xml version="1.0" encoding="UTF-8" standalone="no"?>
<svg xmlns="http://www.w3.org/2000/svg" xmlns:cc="http://creativecommons.org/ns#"
     xmlns:dc="http://purl.org/dc/elements/1.1/" xmlns:rdf="http://www.w3.org/1999/02/22-rdf-syntax-ns#"
     width="230.4505" height="230.4505" viewBox="0 0 60.9734 60.9734">
    <metadata>
        <rdf:RDF>
            <cc:Work>
                <dc:format>
                    image/svg+xml
                </dc:format>
                <dc:type rdf:resource="http://purl.org/dc/dcmitype/StillImage"/>
            </cc:Work>
        </rdf:RDF>
    </metadata>
    <path d="M31.1072 8.8269a19.6964 19.6964 0 0 0-1.7715.0346c-8.1994.5293-15.402 6.1922-17.6677 14.3454-2.5893 9.318 2.024 19.178 10.836 23.1624l2.1798-4.8225c-6.4685-2.9246-9.817-10.0843-7.9163-16.924A14.324 14.324 0 0 1 32.2792 14.211c7.05.832 12.4079 6.6419 12.6643 13.7361.1274 3.5223-1.1088 7.5684-3.7108 10.5395-2.2415 2.5593-5.4203 4.4359-9.9958 4.7464l1.9136-4.2328-3.6153-1.635-5.2188 11.5393 11.4318 5.1698 1.6346-3.6174-4.59-2.0753c5.3097-.6745 9.538-3.1181 12.42-6.409 3.5898-4.099 5.1934-9.3574 5.0178-14.2146-.3494-9.6647-7.7259-17.6697-17.3303-18.803a19.5593 19.5593 0 0 0-1.7931-.1281z"
          fill="currentColor"/>
</svg>
