<?xml version="1.0" encoding="UTF-8" standalone="no"?>
<svg xmlns="http://www.w3.org/2000/svg" xmlns:cc="http://creativecommons.org/ns#"
     xmlns:dc="http://purl.org/dc/elements/1.1/" xmlns:rdf="http://www.w3.org/1999/02/22-rdf-syntax-ns#"
     width="230.4505" height="230.4505" viewBox="0 0 60.9734 60.9734">
    <metadata>
        <rdf:RDF>
            <cc:Work>
                <dc:format>
                    image/svg+xml
                </dc:format>
                <dc:type rdf:resource="http://purl.org/dc/dcmitype/StillImage"/>
            </cc:Work>
        </rdf:RDF>
    </metadata>
    <g fill="currentColor">
        <path d="M58.7069 37.1967c-8.2687 2.2818-14.3738 9.8796-14.3738 18.8557 0 10.7691 8.7872 19.5564 19.5564 19.5564S83.446 66.8215 83.446 56.0524c0-8.9761-6.105-16.574-14.3738-18.8557v5.5531c5.3276 2.0637 9.0811 7.224 9.0811 13.3026 0 7.9093-6.3543 14.2637-14.2637 14.2637-7.9093 0-14.2637-6.3544-14.2637-14.2637 0-6.0785 3.7535-11.2389 9.081-13.3026z"
              style="-inkscape-stroke:none" transform="translate(-33.2549 -23.6429)"/>
        <path d="M61.243 30.4215V52.699h5.293V30.4215Z" style="-inkscape-stroke:none"
              transform="translate(-33.2549 -23.6429)"/>
    </g>
</svg>
