<?xml version="1.0" encoding="UTF-8" standalone="no"?>
<svg xmlns="http://www.w3.org/2000/svg" xmlns:cc="http://creativecommons.org/ns#"
     xmlns:dc="http://purl.org/dc/elements/1.1/" xmlns:rdf="http://www.w3.org/1999/02/22-rdf-syntax-ns#"
     width="230.4505" height="230.4505" viewBox="0 0 60.9734 60.9734">
    <metadata>
        <rdf:RDF>
            <cc:Work>
                <dc:format>
                    image/svg+xml
                </dc:format>
                <dc:type rdf:resource="http://purl.org/dc/dcmitype/StillImage"/>
            </cc:Work>
        </rdf:RDF>
    </metadata>
    <path fill="currentColor"
          d="M117.7983 139.452c.0892 12.2959 10.0252 22.1612 22.3203 22.3224 15.763.2066 26.6358-15.024 19.6337-29.434-.5658 4.9258-5.2284 9.797-11.921 9.8893-5.9173.0816-10.65-4.7404-10.6602-10.6582-.013-7.4937 4.7089-11.4422 8.5326-12.6466-14.814-4.9568-28.0064 6.6187-27.9054 20.5272zm17.2595-17.2633c-1.9589 2.6664-3.1774 5.893-3.1777 9.3828.0002 8.7777 7.1735 15.9494 15.9512 15.9492 3.4902-.0003 6.7181-1.2183 9.3847-3.1777-2.5167 6.2506-9.9235 12.1405-17.0974 12.1403-9.4363 0-17.0295-7.595-17.0293-17.0312 0-7.1728 5.7193-14.7461 11.9685-17.2634z"
          style="-inkscape-stroke:none" transform="translate(-108.8775 -109.7363)"/>
</svg>
